<svg width="70" height="32" viewBox="0 0 70 32" fill="none" xmlns="http://www.w3.org/2000/svg">
<path d="M8.36975 0.000488281C8.81221 0.144751 9.25719 0.281443 9.69671 0.434958C14.3076 2.04582 15.937 7.59088 12.931 11.4321C12.6858 11.7455 12.4326 12.0546 12.2131 12.3856C10.6935 14.6774 10.7086 16.9974 12.1252 19.3249C12.4469 19.854 12.8217 20.3503 13.1628 20.8681C14.8641 23.4518 14.9461 26.0948 13.3155 28.7184C11.8228 31.1195 8.81894 32.4019 6.08468 31.8875C2.97105 31.3017 0.979134 29.4856 0.161086 26.4077C0.124074 26.2693 0.0542561 26.1402 0 26.0069C0 25.3091 0 24.6122 0 23.9144C0.358764 22.6135 0.77641 21.3383 1.73115 20.3289C3.70372 18.244 3.95649 14.6968 2.17655 12.251C1.22434 10.9421 0.373905 9.64967 0 8.07162C0 7.37386 0 6.67652 0 5.97876C0.0546767 5.84711 0.127018 5.71968 0.161927 5.58298C0.882398 2.77176 2.66444 1.00822 5.44076 0.221719C5.67208 0.156107 5.89878 0.0745122 6.128 0.000488281H8.36975Z" fill="#E41E26"/>
<path d="M44.689 0.00042059C45.0167 0.101362 45.3418 0.211136 45.672 0.301984C50.6164 1.65586 52.5364 7.4129 49.3727 11.4422C48.5799 12.452 47.8965 13.5031 47.6504 14.7867C47.2668 16.7891 47.9263 18.5043 49.1048 20.0794C50.1996 21.5426 50.9575 23.1278 50.934 25.0125C50.889 28.6136 47.9259 31.7222 44.3059 31.9476C40.4739 32.1857 37.1857 29.6365 36.6192 26.0211C36.2852 23.8937 36.8307 22.0166 38.2002 20.3961C40.1118 18.1342 40.3397 15.6779 39.1633 13.0366C38.9644 12.5904 38.6855 12.1584 38.3613 11.7925C34.7063 7.67157 36.7983 1.32822 42.1979 0.184639C42.3855 0.144683 42.5634 0.062668 42.7459 0C43.3936 0.00042059 44.0413 0.00042059 44.689 0.00042059Z" fill="#F26522"/>
<path d="M26.604 0.000488281C27.0945 0.159051 27.5907 0.301631 28.0748 0.478279C31.0766 1.57476 33.0563 4.70647 32.6803 7.75113C32.2656 11.1066 29.7408 13.6722 26.4732 14.0579C21.9212 14.595 18.1784 11.3106 18.2528 6.84433C18.3054 3.71893 20.6296 0.936722 23.8134 0.182604C24.0002 0.138442 24.1793 0.0618945 24.3623 0.000488281H26.604V0.000488281Z" fill="#E41E26"/>
<path d="M62.9233 0.000488281C63.2997 0.111104 63.6758 0.223822 64.053 0.331914C67.2781 1.25259 69.453 4.39103 69.1561 7.69687C68.8595 11.0006 66.1585 13.7122 62.8337 14.0432C58.7225 14.4528 55.3863 11.8809 54.8253 7.86931C54.3357 4.36664 56.8407 0.936722 60.4326 0.185548C60.6197 0.146013 60.7981 0.0631562 60.9802 0.000488281H62.9233V0.000488281Z" fill="#F26522"/>
<path d="M25.444 31.9684C21.4639 31.9671 18.2544 28.8299 18.2515 24.9365C18.2485 21.012 21.4719 17.8411 25.4717 17.834C29.4543 17.8268 32.7269 21.0322 32.7143 24.9264C32.7017 28.8518 29.4829 31.9696 25.444 31.9684Z" fill="#E41E26"/>
<path d="M61.9601 31.9511C57.9868 31.9502 54.7659 28.8139 54.7445 24.9238C54.723 21.0792 57.9856 17.8747 61.937 17.8592C65.9368 17.8436 69.1703 21.0107 69.1653 24.9394C69.1602 28.829 65.9515 31.9519 61.9601 31.9511Z" fill="#F26522"/>
</svg>
